<svg width="911" height="593" viewBox="0 0 911 593" fill="none" xmlns="http://www.w3.org/2000/svg">
<g filter="url(#filter0_d_48_634)">
<g filter="url(#filter1_d_48_634)">
<rect x="50" y="40" width="811" height="493" rx="50" fill="#FCFCFC"/>
</g>
<rect x="62.2031" y="54" width="786.524" height="465.115" rx="50" fill="white"/>
<rect x="62.7031" y="54.5" width="785.524" height="464.115" rx="49.5" stroke="black" stroke-opacity="0.1"/>
<rect x="521.206" y="196" width="289.251" height="268" rx="3" fill="#EEEEEE"/>
<path d="M521.206 397H810.457V461C810.457 462.657 809.114 464 807.457 464H524.206C522.549 464 521.206 462.657 521.206 461V397Z" fill="#D9D9D9"/>
<path d="M522.8 397L597.497 260.607L678.55 397L740.533 313.25L807.283 397H678.55H522.8Z" fill="#D9D9D9"/>
<path d="M522.8 397L597.497 260.607L678.55 397L740.533 313.25L807.283 397H522.8Z" stroke="#D9D9D9"/>
<path d="M162.406 465.835C162.406 454.501 171.595 445.312 182.93 445.312H359.305C370.64 445.312 379.829 454.501 379.829 465.835V465.835C379.829 477.17 370.64 486.359 359.305 486.359H182.93C171.595 486.359 162.406 477.17 162.406 465.835V465.835Z" fill="#EEEEEE"/>
<ellipse cx="133.404" cy="111.041" rx="17.8215" ry="18.4083" fill="#EEEEEE"/>
<rect x="753.593" y="95.0874" width="38.0193" height="7.3633" fill="#EEEEEE"/>
<rect x="753.593" y="108.587" width="38.0193" height="7.3633" fill="#EEEEEE"/>
<rect x="753.593" y="122.086" width="38.0193" height="7.3633" fill="#EEEEEE"/>
<rect x="133.424" y="196.371" width="290" height="32" rx="3" fill="#EEEEEE"/>
<rect x="133.424" y="233.371" width="233" height="32" rx="3" fill="#EEEEEE"/>
<rect x="337.759" y="96.3147" width="42" height="24" rx="3" fill="#EEEEEE"/>
<rect x="384.759" y="96.3147" width="62" height="24" rx="3" fill="#EEEEEE"/>
<rect x="451.759" y="96.3147" width="74" height="24" rx="3" fill="#EEEEEE"/>
<rect x="530.759" y="96.3147" width="63" height="24" rx="3" fill="#EEEEEE"/>
<rect x="133.424" y="297.503" width="338" height="16" rx="3" fill="#EEEEEE"/>
<rect x="133.424" y="317.503" width="318" height="16" rx="3" fill="#EEEEEE"/>
<rect x="133.424" y="337.503" width="297" height="16" rx="3" fill="#EEEEEE"/>
<rect x="133.424" y="358.503" width="307" height="16" rx="3" fill="#EEEEEE"/>
<rect x="133.424" y="379.503" width="159" height="16" rx="3" fill="#EEEEEE"/>
<rect x="166.67" y="95.0874" width="77.2267" height="31.9076" fill="#EEEEEE"/>
<rect x="499.083" y="178" width="48" height="48" rx="24" fill="#4DABF7"/>
<path d="M515.083 204.56L519.231 186H529.898L523.972 198.8H531.083L516.268 218L520.416 204.56H515.083Z" fill="white"/>
<rect x="162.406" y="428.197" width="217.423" height="46.6342" rx="23.3171" fill="#4DABF7"/>
<path d="M263.117 454.074L267.265 435.514H277.932L272.006 448.314H279.117L264.302 467.514L268.451 454.074H263.117Z" fill="white"/>
</g>
<defs>
<filter id="filter0_d_48_634" x="0" y="0" width="911" height="593" filterUnits="userSpaceOnUse" color-interpolation-filters="sRGB">
<feFlood flood-opacity="0" result="BackgroundImageFix"/>
<feColorMatrix in="SourceAlpha" type="matrix" values="0 0 0 0 0 0 0 0 0 0 0 0 0 0 0 0 0 0 127 0" result="hardAlpha"/>
<feOffset dy="10"/>
<feGaussianBlur stdDeviation="25"/>
<feComposite in2="hardAlpha" operator="out"/>
<feColorMatrix type="matrix" values="0 0 0 0 0 0 0 0 0 0 0 0 0 0 0 0 0 0 0.1 0"/>
<feBlend mode="normal" in2="BackgroundImageFix" result="effect1_dropShadow_48_634"/>
<feBlend mode="normal" in="SourceGraphic" in2="effect1_dropShadow_48_634" result="shape"/>
</filter>
<filter id="filter1_d_48_634" x="46" y="40" width="819" height="501" filterUnits="userSpaceOnUse" color-interpolation-filters="sRGB">
<feFlood flood-opacity="0" result="BackgroundImageFix"/>
<feColorMatrix in="SourceAlpha" type="matrix" values="0 0 0 0 0 0 0 0 0 0 0 0 0 0 0 0 0 0 127 0" result="hardAlpha"/>
<feOffset dy="4"/>
<feGaussianBlur stdDeviation="2"/>
<feComposite in2="hardAlpha" operator="out"/>
<feColorMatrix type="matrix" values="0 0 0 0 0 0 0 0 0 0 0 0 0 0 0 0 0 0 0.25 0"/>
<feBlend mode="normal" in2="BackgroundImageFix" result="effect1_dropShadow_48_634"/>
<feBlend mode="normal" in="SourceGraphic" in2="effect1_dropShadow_48_634" result="shape"/>
</filter>
</defs>
</svg>
