<svg width="185" height="184" viewBox="0 0 185 184" fill="none" xmlns="http://www.w3.org/2000/svg">
<path d="M183.356 174.183L156.301 147.294V43.8494L143.523 20.3494C142.58 18.5578 141.166 17.0577 139.433 16.0112C137.7 14.9647 135.714 14.4116 133.69 14.4116C131.665 14.4116 129.679 14.9647 127.946 16.0112C126.213 17.0577 124.799 18.5578 123.856 20.3494L111.856 43.905V103.072L10.2452 1.96056C9.46815 1.17706 8.47537 0.642727 7.39344 0.425674C6.31151 0.20862 5.18945 0.318684 4.17031 0.741832C3.15118 1.16498 2.28115 1.88204 1.67114 2.8016C1.06114 3.72115 0.738794 4.80153 0.745211 5.905V50.7939H12.8008V59.6828H0.745211V95.2383H12.8008V104.127H0.745211V141.072H12.8008V149.961H0.745211V178.127C0.745211 179.601 1.33053 181.014 2.3724 182.056C3.41426 183.097 4.82734 183.683 6.30077 183.683H179.412C180.515 183.689 181.596 183.367 182.515 182.757C183.435 182.147 184.152 181.277 184.575 180.258C184.998 179.239 185.108 178.116 184.891 177.035C184.674 175.953 184.14 174.96 183.356 174.183ZM45.1897 139.683V89.3494L95.5785 139.683H45.1897ZM145.19 151.405H122.967V137.905H145.19V151.405ZM145.19 129.183H122.967V46.6272L133.745 25.6828L145.19 46.6828V129.183Z" fill="#000B17"/>
</svg>
