<svg width="200" height="201" viewBox="0 0 200 201" fill="none" xmlns="http://www.w3.org/2000/svg">
<path fill-rule="evenodd" clip-rule="evenodd" d="M167.386 22.5875C165.617 22.2345 163.793 22.2783 162.044 22.7158C160.294 23.1533 158.664 23.9735 157.27 25.1173C155.876 26.2612 154.753 27.7001 153.983 29.3303C153.212 30.9606 152.813 32.7415 152.814 34.5447C152.814 37.3863 151.685 40.1115 149.676 42.1208C147.667 44.1301 144.942 45.259 142.1 45.259C139.258 45.259 136.533 44.1301 134.524 42.1208C132.515 40.1115 131.386 37.3863 131.386 34.5447C131.385 28.3599 133.091 22.2948 136.315 17.017C139.539 11.7392 144.157 7.45317 149.66 4.63077C155.163 1.80836 161.339 0.558964 167.506 1.02008C173.674 1.48121 179.595 3.63497 184.617 7.24432C189.639 10.8537 193.568 15.7787 195.972 21.4773C198.376 27.1759 199.16 33.4272 198.24 39.5431C197.32 45.659 194.73 51.4024 190.755 56.1412C186.781 60.88 181.576 64.4305 175.714 66.4018V68.8875C175.714 70.2946 175.437 71.6878 174.899 72.9877C174.36 74.2876 173.571 75.4688 172.576 76.4637C171.581 77.4586 170.4 78.2478 169.1 78.7862C167.8 79.3247 166.407 79.6018 165 79.6018C163.593 79.6018 162.2 79.3247 160.9 78.7862C159.6 78.2478 158.419 77.4586 157.424 76.4637C156.429 75.4688 155.64 74.2876 155.101 72.9877C154.563 71.6878 154.286 70.2946 154.286 68.8875V57.4447C154.286 54.6031 155.415 51.8779 157.424 49.8685C159.433 47.8592 162.158 46.7304 165 46.7304C168.031 46.7396 170.956 45.619 173.205 43.5874C175.454 41.5559 176.865 38.7591 177.164 35.7431C177.462 32.727 176.625 29.7081 174.817 27.2756C173.009 24.8432 170.36 23.1717 167.386 22.5875ZM164.9 112.159C161.774 112.146 158.782 110.891 156.581 108.672C154.38 106.452 153.151 103.449 153.164 100.323C153.178 97.1975 154.432 94.205 156.652 92.0041C158.871 89.8033 161.874 88.5743 165 88.5875H165.1C168.226 88.6008 171.218 89.8552 173.419 92.0748C175.62 94.2945 176.849 97.2975 176.836 100.423C176.822 103.549 175.568 106.541 173.348 108.742C171.129 110.943 168.126 112.172 165 112.159H164.9ZM121.643 157.216H185.714C189.503 157.216 193.137 155.711 195.816 153.032C198.495 150.353 200 146.719 200 142.93C200 139.142 198.495 135.508 195.816 132.829C193.137 130.15 189.503 128.645 185.714 128.645H28.5714V42.9304H100C103.789 42.9304 107.422 41.4253 110.102 38.7462C112.781 36.0671 114.286 32.4335 114.286 28.6447C114.286 24.8559 112.781 21.2222 110.102 18.5432C107.422 15.8641 103.789 14.359 100 14.359H21.4286C15.7454 14.359 10.2949 16.6166 6.27628 20.6353C2.25765 24.6539 0 30.1043 0 35.7875L0 135.788C0 141.471 2.25765 146.921 6.27628 150.94C10.2949 154.958 15.7454 157.216 21.4286 157.216H78.3571L70.6857 178.645H57.1429C54.3013 178.645 51.576 179.774 49.5667 181.783C47.5574 183.792 46.4286 186.517 46.4286 189.359C46.4286 192.201 47.5574 194.926 49.5667 196.935C51.576 198.944 54.3013 200.073 57.1429 200.073H142.857C145.699 200.073 148.424 198.944 150.433 196.935C152.443 194.926 153.571 192.201 153.571 189.359C153.571 186.517 152.443 183.792 150.433 181.783C148.424 179.774 145.699 178.645 142.857 178.645H129.314L121.643 157.216Z" fill="#000B17"/>
</svg>
