<svg width="81" height="80" viewBox="0 0 81 80" fill="none" xmlns="http://www.w3.org/2000/svg">
<mask id="mask0_43_323" style="mask-type:luminance" maskUnits="userSpaceOnUse" x="0" y="0" width="81" height="80">
<path d="M0.5 0H80.5V80H0.5V0Z" fill="white"/>
</mask>
<g mask="url(#mask0_43_323)">
<path d="M1.26025 27.8997C1.26025 27.8997 -0.686413 26.4764 1.65025 24.583L7.10025 19.6564C7.10025 19.6564 8.65692 17.9997 10.3069 19.443L60.5769 57.9164V76.363C60.5769 76.363 60.5536 79.263 56.8769 78.943L1.26025 27.8997Z" fill="#000B17"/>
<path d="M14.2206 39.7898L1.26056 51.6964C1.26056 51.6964 -0.072772 52.6964 1.26056 54.4864L7.27723 60.0198C7.27723 60.0198 8.70723 61.5698 10.8172 59.8031L24.5539 49.2764L14.2206 39.7898ZM36.9672 39.8864L60.7339 21.5464L60.5772 3.19644C60.5772 3.19644 59.5606 -0.810224 56.1772 1.27644L24.5539 30.3664L36.9672 39.8864Z" fill="#000B17"/>
<path d="M56.8734 78.9668C58.2534 80.3935 59.9268 79.9268 59.9268 79.9268L78.4468 70.7035C80.8168 69.0702 80.4834 67.0435 80.4834 67.0435V11.9602C80.4834 9.54016 78.0334 8.7035 78.0334 8.7035L61.9801 0.880162C58.4734 -1.30984 56.1768 1.27683 56.1768 1.27683C56.1768 1.27683 59.1301 -0.873172 60.5768 3.19683V76.0302C60.5768 76.5302 60.4701 77.0202 60.2601 77.4635C59.8368 78.3268 58.9201 79.1302 56.7201 78.7968L56.8734 78.9668Z" fill="#000B17"/>
</g>
</svg>
