<svg width="81" height="80" viewBox="0 0 81 80" fill="none" xmlns="http://www.w3.org/2000/svg">
<path opacity="0.6" d="M39.39 6.6665H28.2767C25.3297 6.6665 22.5034 7.83719 20.4196 9.92104C18.3357 12.0049 17.165 14.8312 17.165 17.7782C17.165 20.7252 18.3357 23.5515 20.4196 25.6353C22.5034 27.7191 25.3297 28.8898 28.2767 28.8898H39.39V6.6665Z" fill="black"/>
<path opacity="0.4" d="M39.3903 28.8901H28.277C25.3304 28.8901 22.5046 30.0607 20.421 32.1442C18.3375 34.2277 17.167 37.0536 17.167 40.0001C17.167 42.9467 18.3375 45.7726 20.421 47.8561C22.5046 49.9396 25.3304 51.1101 28.277 51.1101H39.3903V28.8901Z" fill="black"/>
<path d="M61.6101 39.9999C61.6101 42.9468 60.4394 45.7731 58.3555 47.857C56.2717 49.9408 53.4454 51.1115 50.4984 51.1115C47.5514 51.1115 44.7251 49.9408 42.6413 47.857C40.5574 45.7731 39.3867 42.9468 39.3867 39.9999C39.3867 37.0529 40.5574 34.2266 42.6413 32.1427C44.7251 30.0589 47.5514 28.8882 50.4984 28.8882C53.4454 28.8882 56.2717 30.0589 58.3555 32.1427C60.4394 34.2266 61.6101 37.0529 61.6101 39.9999Z" fill="black"/>
<path opacity="0.2" d="M28.2766 51.1132H39.3899V62.2232C39.3893 64.4203 38.7372 66.5678 37.5162 68.3943C36.2951 70.2208 34.56 71.6443 32.53 72.4848C30.5001 73.3253 28.2665 73.545 26.1117 73.1162C23.9568 72.6874 21.9775 71.6294 20.424 70.0758C18.8704 68.5223 17.8124 66.543 17.3836 64.3881C16.9548 62.2333 17.1745 59.9997 18.015 57.9698C18.8555 55.9398 20.2789 54.2047 22.1055 52.9836C23.932 51.7626 26.0795 51.1139 28.2766 51.1132Z" fill="black"/>
<path opacity="0.8" d="M39.3867 6.6665H50.4967C53.4437 6.6665 56.27 7.83719 58.3539 9.92104C60.4377 12.0049 61.6084 14.8312 61.6084 17.7782C61.6084 20.7252 60.4377 23.5515 58.3539 25.6353C56.27 27.7191 53.4437 28.8898 50.4967 28.8898H39.3867V6.6665Z" fill="black"/>
</svg>
