<svg width="167" height="151" viewBox="0 0 167 151" fill="none" xmlns="http://www.w3.org/2000/svg">
<path d="M150.333 0.5H16.9997C7.80801 0.5 0.333008 7.975 0.333008 17.1667V133.833C0.333008 143.025 7.80801 150.5 16.9997 150.5H150.333C159.525 150.5 167 143.025 167 133.833V17.1667C167 7.975 159.525 0.5 150.333 0.5ZM16.9997 133.833V33.8333H150.333L150.35 133.833H16.9997Z" fill="#000B17"/>
<path d="M61.5 56.5L31 87L61.5 117.5L73.1339 105.866L54.2679 87L73.1339 68.1339L61.5 56.5ZM106.045 56.5L94.4107 68.1339L113.277 87L94.4107 105.866L106.045 117.5L136.545 87L106.045 56.5Z" fill="#000B17"/>
</svg>
