<svg width="140" height="158" viewBox="0 0 140 158" fill="none" xmlns="http://www.w3.org/2000/svg">
<path d="M31.1111 157.5H108.889C110.761 157.5 112.569 156.819 113.984 155.582C115.398 154.345 116.323 152.635 116.589 150.765L131.188 47.6H140V31.9H129.251L115.842 4.84105C115.197 3.53732 114.204 2.44069 112.976 1.67399C111.748 0.907283 110.333 0.500778 108.889 0.5H31.1111C28.1633 0.5 25.4722 2.1799 24.15 4.84105L10.7489 31.9H0V47.6H8.81222L23.4111 150.765C23.6769 152.635 24.6018 154.345 26.0162 155.582C27.4305 156.819 29.2395 157.5 31.1111 157.5ZM112.14 71.15H27.86L24.5233 47.6H115.469L112.14 71.15ZM37.8544 141.8L34.5178 118.25H105.474L102.138 141.8H37.8544ZM35.9178 16.2H104.082L111.86 31.9H28.14L35.9178 16.2Z" fill="#000B17"/>
</svg>
