<svg width="168" height="168" viewBox="0 0 168 168" fill="none" xmlns="http://www.w3.org/2000/svg">
<path d="M158.002 3.77424C148.646 1.67897 139.089 0.617057 129.502 0.607571C120.447 0.032687 111.369 1.25339 102.788 4.19948C94.2072 7.14557 86.2934 11.7589 79.5017 17.7742C70.5573 26.7187 61.6962 35.6353 52.9184 44.5242C42.8351 43.4409 18.9184 42.8576 2.91839 59.0242C1.3663 60.5856 0.495117 62.6977 0.495117 64.8992C0.495117 67.1008 1.3663 69.2129 2.91839 70.7742L97.0851 165.108C98.6464 166.66 100.759 167.531 102.96 167.531C105.162 167.531 107.274 166.66 108.835 165.108C125.085 148.441 124.585 124.941 123.585 115.108L150.335 88.4409C176.918 61.8576 164.835 11.9409 164.335 9.85757C163.95 8.35453 163.154 6.98873 162.035 5.91397C160.916 4.8392 159.519 4.09814 158.002 3.77424ZM138.335 76.6909L108.668 106.191C107.708 107.161 107 108.352 106.608 109.66C106.215 110.968 106.15 112.352 106.418 113.691C108.219 124.839 106.652 136.271 101.918 146.524L21.3351 65.7742C31.7505 60.9806 43.3935 59.5253 54.6684 61.6076C56.0024 61.7813 57.3585 61.6294 58.6211 61.165C59.8836 60.7007 61.0149 59.9376 61.9184 58.9409C61.9184 58.9409 73.5851 46.8576 91.1684 29.2742C101.98 20.5919 115.669 16.3067 129.502 17.2742C136.008 17.3065 142.502 17.8638 148.918 18.9409C150.918 30.8576 154.085 60.9409 138.335 76.6909Z" fill="#000B17"/>
<path d="M109.956 72.1666C117.642 72.1666 123.873 65.9336 123.873 58.2448C123.873 50.556 117.642 44.323 109.956 44.323C102.269 44.323 96.0381 50.556 96.0381 58.2448C96.0381 65.9336 102.269 72.1666 109.956 72.1666Z" fill="#000B17"/>
<path d="M35.2885 111.844C21.3711 118.805 21.3711 146.648 21.3711 146.648C34.2522 146.281 46.5836 141.347 56.1647 132.726L35.2885 111.844Z" fill="#000B17"/>
</svg>
