<svg width="81" height="80" viewBox="0 0 81 80" fill="none" xmlns="http://www.w3.org/2000/svg">
<path d="M13.8333 0C10.2971 0 6.90573 1.40476 4.40524 3.90524C1.90476 6.40573 0.5 9.79711 0.5 13.3333V66.6667C0.5 70.2029 1.90476 73.5943 4.40524 76.0948C6.90573 78.5952 10.2971 80 13.8333 80H67.1667C70.7029 80 74.0943 78.5952 76.5948 76.0948C79.0952 73.5943 80.5 70.2029 80.5 66.6667V13.3333C80.5 9.79711 79.0952 6.40573 76.5948 3.90524C74.0943 1.40476 70.7029 0 67.1667 0H13.8333ZM46.4289 58.0222C49.6289 60.6 52.823 61.8711 56.0111 61.8356C57.9667 61.8356 59.4659 61.477 60.5089 60.76C60.9945 60.4448 61.3896 60.0085 61.6554 59.4942C61.9211 58.9798 62.0483 58.4051 62.0244 57.8267C62.0312 57.1957 61.8994 56.571 61.6383 55.9965C61.3772 55.4221 60.9932 54.912 60.5133 54.5022C59.4704 53.5926 57.497 52.68 54.5933 51.7645C51.1059 50.757 48.417 49.4533 46.5267 47.8533C44.6719 46.2533 43.7267 44.0207 43.6911 41.1556C43.6911 38.4504 44.8644 36.1852 47.2111 34.36C49.4926 32.5348 52.4111 31.6222 55.9667 31.6222C60.9207 31.6222 64.8956 32.8281 67.8911 35.24L64.4689 40.5689C63.2366 39.6108 61.823 38.9123 60.3133 38.5156C58.9567 38.061 57.5393 37.8138 56.1089 37.7822C54.42 37.7822 53.0674 38.0919 52.0511 38.7111C51.0437 39.3333 50.54 40.1482 50.54 41.1556C50.54 42.2637 51.1578 43.2089 52.3933 43.9911C53.6378 44.7437 55.7563 45.5748 58.7489 46.4844C62.3667 47.56 64.9415 48.9941 66.4733 50.7867C68.0052 52.5793 68.7711 54.8607 68.7711 57.6311C68.7711 60.4667 67.6793 62.9111 65.4956 64.9644C63.3444 66.9852 60.2156 68.0444 56.1089 68.1422C50.7311 68.1422 46.2333 66.5289 42.6156 63.3022L46.4289 58.0222ZM21.8511 60.8578C22.8941 61.5096 24.1489 61.8356 25.6156 61.8356C27.1474 61.8356 28.4185 61.3956 29.4289 60.5156C30.4363 59.603 30.9415 58.0222 30.9444 55.7733V32.2089H37.5444V57.0444C37.4467 60.8904 36.3385 63.6607 34.22 65.3556C33.0608 66.3356 31.7131 67.0677 30.26 67.5067C28.9125 67.917 27.513 68.131 26.1044 68.1422C23.66 68.1422 21.4926 67.7185 19.6022 66.8711C17.5815 65.9615 15.8867 64.3482 14.5178 62.0311L19.1133 58.2667C19.9578 59.4074 20.8704 60.2711 21.8511 60.8578Z" fill="#000B17"/>
</svg>
