<svg width="15" height="16" viewBox="0 0 15 16" fill="none" xmlns="http://www.w3.org/2000/svg">
<path d="M0.601183 2.52885C0.210659 2.13833 0.210659 1.50516 0.601184 1.11464L0.972593 0.743227C1.36312 0.352703 1.99628 0.352703 2.38681 0.743227L10.6863 9.04275C11.3163 9.67272 12.3934 9.22655 12.3934 8.33565L12.3934 1.92893C12.3934 1.37665 12.8412 0.928932 13.3934 0.928932L13.929 0.928932C14.4813 0.928932 14.929 1.37665 14.929 1.92893V14.0711C14.929 14.6234 14.4813 15.0711 13.929 15.0711L1.78689 15.0711C1.2346 15.0711 0.786888 14.6234 0.786888 14.0711L0.786888 13.5355C0.786888 12.9832 1.2346 12.5355 1.78689 12.5355L8.1936 12.5355C9.08451 12.5355 9.53067 11.4583 8.90071 10.8284L0.601183 2.52885Z" fill="#000B17"/>
</svg>
