<svg width="81" height="80" viewBox="0 0 81 80" fill="none" xmlns="http://www.w3.org/2000/svg">
<path d="M40.5 0C18.46 0 0.5 17.96 0.5 40C0.5 62.04 18.46 80 40.5 80C62.54 80 80.5 62.04 80.5 40C80.5 17.96 62.54 0 40.5 0ZM4.54 40C4.54 34.8 5.66 29.84 7.66 25.36L24.82 72.36C12.82 66.52 4.54 54.24 4.54 40ZM40.5 75.96C36.98 75.96 33.58 75.44 30.34 74.48L41.14 43.12L52.18 73.4C52.26 73.56 52.34 73.76 52.42 73.88C48.7 75.24 44.7 75.96 40.5 75.96ZM45.46 23.12C47.62 23 49.58 22.76 49.58 22.76C51.5 22.52 51.3 19.68 49.34 19.8C49.34 19.8 43.5 20.24 39.74 20.24C36.22 20.24 30.26 19.8 30.26 19.8C28.34 19.72 28.1 22.68 30.06 22.8C30.06 22.8 31.9 23.04 33.82 23.16L39.42 38.52L31.54 62.12L18.46 23.12C20.62 23.04 22.58 22.8 22.58 22.8C24.5 22.56 24.3 19.72 22.34 19.84C22.34 19.84 16.5 20.28 12.74 20.28C12.06 20.28 11.26 20.28 10.42 20.24C16.9 10.48 27.94 4.04 40.5 4.04C49.86 4.04 58.38 7.6 64.78 13.48C64.62 13.48 64.46 13.44 64.3 13.44C60.78 13.44 58.26 16.52 58.26 19.84C58.26 22.8 59.98 25.32 61.78 28.28C63.14 30.68 64.74 33.76 64.74 38.2C64.74 41.28 63.54 44.84 62.02 49.84L58.42 61.84L45.46 23.12ZM72.06 22.76C76.5508 30.983 77.6548 40.634 75.1372 49.6587C72.6195 58.6835 66.679 66.3692 58.58 71.08L69.58 39.32C71.62 34.2 72.3 30.08 72.3 26.44C72.3 25.12 72.22 23.88 72.06 22.76Z" fill="#000B17"/>
</svg>
