<svg width="81" height="80" viewBox="0 0 81 80" fill="none" xmlns="http://www.w3.org/2000/svg">
<path d="M66.3312 1.27593e-05H14.6688C12.8074 -0.00251863 10.9638 0.371636 9.24369 1.10104C7.52355 1.83045 5.96062 2.90078 4.64444 4.25071C3.32826 5.60064 2.28469 7.20364 1.57352 8.96789C0.862345 10.7321 0.497544 12.623 0.500012 14.5321V65.4679C0.497544 67.377 0.862345 69.2679 1.57352 71.0321C2.28469 72.7964 3.32826 74.3994 4.64444 75.7493C5.96062 77.0992 7.52355 78.1695 9.24369 78.8989C10.9638 79.6284 12.8074 80.0025 14.6688 80H66.3312C68.1926 80.0025 70.0362 79.6284 71.7563 78.8989C73.4764 78.1695 75.0394 77.0992 76.3556 75.7493C77.6717 74.3994 78.7153 72.7964 79.4265 71.0321C80.1376 69.2679 80.5024 67.377 80.5 65.4679V14.5321C80.5024 12.623 80.1376 10.7321 79.4265 8.96789C78.7153 7.20364 77.6717 5.60064 76.3556 4.25071C75.0394 2.90078 73.4764 1.83045 71.7563 1.10104C70.0362 0.371636 68.1926 -0.00251863 66.3312 1.27593e-05ZM49.4 56.4102H42.4312C42.3138 56.4194 42.1969 56.3868 42.1001 56.3179C42.0034 56.2491 41.9327 56.1481 41.9 56.032L39.1687 47.8654H26.75L24.25 55.8974C24.2227 56.0429 24.1435 56.1727 24.028 56.2616C23.9125 56.3504 23.7688 56.392 23.625 56.3782H17.375C17.0125 56.3782 16.9125 56.1731 17.0125 55.7372L27.7 24.0705C27.8 23.7244 27.9 23.3526 28.0312 22.9423C28.1679 22.2092 28.2349 21.4643 28.2313 20.718C28.2218 20.6319 28.2441 20.5452 28.2939 20.4752C28.3436 20.4052 28.4172 20.3569 28.5 20.3398H37.1312C37.4 20.3398 37.5312 20.4423 37.5687 20.6154L49.7312 55.8269C49.8312 56.2051 49.7312 56.3782 49.4 56.3782V56.4102ZM60.9 56.0256C60.9 56.4038 60.7687 56.5705 60.4687 56.5705H53.9312C53.8615 56.576 53.7914 56.5653 53.7262 56.5394C53.661 56.5135 53.6022 56.4729 53.5543 56.4206C53.5063 56.3684 53.4704 56.3058 53.4491 56.2374C53.4278 56.1691 53.4217 56.0967 53.4312 56.0256V29.6731C53.4312 29.3333 53.5687 29.1987 53.8687 29.1987H60.5C60.8 29.1987 60.9312 29.3654 60.9312 29.6731L60.9 56.0256ZM60.2 25.1282C59.807 25.5377 59.3333 25.8564 58.8105 26.0632C58.2878 26.2699 57.7281 26.3598 57.1687 26.3269C56.6211 26.3393 56.0765 26.2397 55.5668 26.0339C55.0571 25.8281 54.5924 25.5202 54.2 25.1282C53.4328 24.2732 53.0262 23.1419 53.0687 21.9808C53.0454 21.4175 53.1385 20.8555 53.3421 20.3318C53.5457 19.8081 53.8551 19.3346 54.25 18.9423C55.0487 18.164 56.1108 17.7342 57.2125 17.7436C57.7724 17.7139 58.3322 17.8053 58.8555 18.0118C59.3788 18.2183 59.8539 18.5353 60.25 18.9423C60.9866 19.7707 61.381 20.86 61.35 21.9808C61.3723 22.5575 61.2821 23.133 61.0846 23.6735C60.8872 24.214 60.5864 24.7086 60.2 25.1282ZM37.1687 40.9231H28.7C29.2 39.4872 29.7 37.8782 30.1688 36.1346C30.6375 34.391 31.2 32.718 31.7 31.0769C32.1553 29.6291 32.5329 28.1568 32.8312 26.6667H32.9C33.1312 27.4872 33.3687 28.3782 33.6312 29.3333C33.8937 30.2885 34.2 31.3141 34.5312 32.3782C34.8625 33.4423 35.1562 34.4615 35.5 35.5192C35.8438 36.5769 36.125 37.5385 36.4 38.4615C36.675 39.3846 36.9687 40.2051 37.1687 40.9231Z" fill="#000B17"/>
</svg>
