<svg width="81" height="78" viewBox="0 0 81 78" fill="none" xmlns="http://www.w3.org/2000/svg">
<path d="M14.6663 0C6.83313 0 0.5 6.33375 0.5 14.1675V63.8325C0.5 71.6663 6.83313 78 14.6663 78H66.3337C74.1669 78 80.5 71.6663 80.5 63.8325V14.1675C80.5 6.33375 74.1669 0 66.3337 0H14.6663ZM29.1669 19.8337C31.9 19.8337 34.1669 20.1663 36.0331 20.8663C37.7066 21.4349 39.2324 22.3689 40.5 23.6006C41.5739 24.6782 42.4039 25.9739 42.9337 27.4C43.4338 28.8 43.6994 30.2331 43.6994 31.7331C43.6994 34.5998 43.0327 36.9665 41.6994 38.8331C40.3669 40.6994 38.5006 42.1 36.3337 42.9C34.0669 43.7337 31.5669 44.0331 28.8337 44.0331C28.0338 44.0331 27.4994 44.0331 27.1663 44C26.8331 43.9669 26.3663 43.9669 25.7331 43.9669V54.6669C25.7663 54.9 25.6 55.1006 25.3669 55.1338H18.9C18.6338 55.1338 18.5012 54.9994 18.5012 54.6994V20.4C18.5012 20.1669 18.6012 20.0325 18.8344 20.0325C19.4012 20.0325 19.9344 20.0325 20.7006 20C21.5006 19.9662 22.3337 19.9675 23.2337 19.9338C24.1338 19.9006 25.1006 19.9 26.1338 19.8669C27.1675 19.8331 28.1669 19.8337 29.1669 19.8337ZM29.9106 26.3988C29.7404 26.3955 29.5702 26.3959 29.4 26.4C28.5338 26.4 27.7669 26.4006 27.1331 26.4344C26.4669 26.4006 26.0006 26.4338 25.7675 26.4669V37.6669C26.2338 37.7006 26.6663 37.7331 27.0662 37.7331H28.8337C30.1337 37.7331 31.4338 37.5331 32.6669 37.1331C33.7337 36.8331 34.6669 36.1994 35.4 35.3663C36.1 34.5325 36.4338 33.4 36.4338 31.9331C36.4644 30.8918 36.1987 29.8631 35.6675 28.9669C35.1006 28.1006 34.3 27.4331 33.3331 27.0669C32.2537 26.6294 31.0981 26.4219 29.9106 26.3988ZM57.8669 28.1006C59.2338 28.1006 60.6338 28.1994 62 28.3994C63 28.5325 63.9663 28.8006 64.8662 29.1675C65 29.2006 65.1331 29.3331 65.1994 29.4662C65.2331 29.5994 65.2669 29.7331 65.2669 29.8663V35.3C65.2672 35.3647 65.2523 35.4285 65.2235 35.4864C65.1946 35.5443 65.1525 35.5945 65.1006 35.6331C64.8006 35.7 64.6338 35.7 64.5006 35.6331C63.5006 35.1 62.4331 34.7337 61.2994 34.5006C60.0662 34.2337 58.8331 34.0662 57.5669 34.0662C56.9 34.0325 56.1994 34.1338 55.5663 34.3C55.1325 34.4 54.7663 34.6338 54.5331 34.9669C54.3669 35.2338 54.2669 35.5669 54.2669 35.8669C54.2669 36.1669 54.4006 36.4669 54.6006 36.7331C54.9006 37.1 55.3 37.4006 55.7331 37.6344C56.5061 38.0339 57.2958 38.4002 58.1 38.7325C59.9 39.3325 61.6331 40.1669 63.2331 41.1669C64.3331 41.8669 65.2331 42.8006 65.8662 43.9338C66.4025 44.9969 66.6662 46.1766 66.6338 47.3669C66.6608 48.9425 66.2069 50.489 65.3325 51.8C64.403 53.1305 63.106 54.1613 61.6 54.7663C59.9663 55.4663 57.9663 55.8331 55.5663 55.8331C54.0325 55.8331 52.5337 55.7 51.0337 55.4C49.8581 55.1969 48.7147 54.8381 47.6338 54.3331C47.4006 54.2 47.2331 53.9662 47.2662 53.6994V47.9C47.2662 47.8 47.2994 47.6663 47.3994 47.6C47.4994 47.5331 47.5994 47.5675 47.6994 47.6338C48.9833 48.3912 50.3782 48.9425 51.8331 49.2675C53.1 49.6006 54.4338 49.7669 55.7675 49.7669C57.0338 49.7669 57.9337 49.6 58.5337 49.3C59.0669 49.0669 59.4331 48.5 59.4331 47.9C59.4331 47.4338 59.1669 46.9994 58.6331 46.5656C58.1 46.1325 57 45.6331 55.3669 45C53.6911 44.4098 52.0997 43.603 50.6331 42.6C49.5886 41.8557 48.7232 40.8878 48.1 39.7669C47.568 38.7141 47.3048 37.5461 47.3337 36.3669C47.3337 34.9338 47.7331 33.5669 48.4663 32.3338C49.2994 31.0006 50.5337 29.9338 51.9675 29.2675C53.5337 28.4675 55.4994 28.1006 57.8669 28.1006Z" fill="#000B17"/>
</svg>
