<svg width="101" height="80" viewBox="0 0 101 80" fill="none" xmlns="http://www.w3.org/2000/svg">
<path d="M50.5 0C37.15 0 28.85 8.86667 25.5 26.6667C30.5 17.8 36.35 14.4667 43 16.6667C46.8 17.9333 49.55 21.6 52.55 25.6667C57.45 32.3333 63 40 75.5 40C88.85 40 97.15 31.1333 100.5 13.3333C95.5 22.2 89.65 25.5333 83 23.3333C79.2 22.0667 76.5 18.4 73.45 14.3333C68.55 7.66666 63 0 50.5 0ZM25.5 40C12.15 40 3.85 48.8667 0.5 66.6667C5.5 57.8 11.35 54.4667 18 56.6667C21.8 57.9333 24.5 61.6 27.55 65.6667C32.45 72.3333 38 80 50.5 80C63.85 80 72.15 71.1333 75.5 53.3333C70.5 62.2 64.65 65.5333 58 63.3333C54.2 62.0667 51.5 58.4 48.45 54.3333C43.55 47.6667 38 40 25.5 40Z" fill="#000B17"/>
</svg>
